<svg width="15" height="15" viewBox="0 0 15 15" fill="none" xmlns="http://www.w3.org/2000/svg">
<g clip-path="url(#clip0_1_425)">
<path d="M12.261 0H2.17143C1.01889 0 0.0810547 0.937837 0.0810547 2.09037V12.1799C0.0810547 13.3324 1.01889 14.2703 2.17143 14.2703H12.261C13.4135 14.2703 14.3513 13.3324 14.3513 12.1799V2.09037C14.3513 0.937837 13.4135 0 12.261 0ZM5.12582 11.3159H3.45352V5.46284H5.12582V11.3159ZM5.12582 4.62669H3.45352V2.95439H5.12582V4.62669ZM10.9789 11.3159H9.30656V7.97128C9.30656 7.51031 8.93138 7.13514 8.47041 7.13514C8.00944 7.13514 7.63426 7.51031 7.63426 7.97128V11.3159H5.96197V5.46284H7.63426V5.77803C8.07237 5.64183 8.35697 5.46284 8.88849 5.46284C10.0226 5.46404 10.9789 6.48146 10.9789 7.68386V11.3159Z" fill="black"/>
</g>
<defs>
<clipPath id="clip0_1_425">
<rect width="14.2703" height="14.2703" fill="white" transform="translate(0.0810547)"/>
</clipPath>
</defs>
</svg>
