<?xml version="1.0" standalone="no"?>
<!DOCTYPE svg PUBLIC "-//W3C//DTD SVG 20010904//EN"
 "http://www.w3.org/TR/2001/REC-SVG-20010904/DTD/svg10.dtd">
<svg version="1.0" xmlns="http://www.w3.org/2000/svg"
 width="980.000000pt" height="980.000000pt" viewBox="0 0 980.000000 980.000000"
 preserveAspectRatio="xMidYMid meet">

<g transform="translate(0.000000,980.000000) scale(0.100000,-0.100000)"
fill="#000000" stroke="none">
<path d="M4625 9789 c-924 -65 -1731 -339 -2479 -841 -424 -286 -850 -694
-1169 -1120 -514 -689 -845 -1524 -941 -2378 -49 -438 -43 -804 20 -1250 246
-1733 1414 -3211 3044 -3853 592 -233 1165 -342 1805 -341 312 0 500 14 780
60 2084 341 3708 1965 4049 4049 46 280 60 468 60 780 1 323 -15 521 -64 813
-174 1031 -676 1987 -1425 2710 -817 789 -1872 1266 -3010 1362 -185 15 -518
20 -670 9z"/>
</g>
</svg>
