<svg width="15" height="12" viewBox="0 0 15 12" fill="none" xmlns="http://www.w3.org/2000/svg">
<path d="M5.32379 11.9894C4.70669 11.9894 4.07153 11.9394 3.43255 11.8393C2.30713 11.6627 1.16788 11.074 0.845509 10.8977L0 10.4354L0.915405 10.1344C1.91606 9.80538 2.52477 9.60125 3.27828 9.28159C2.52379 8.91621 1.9423 8.25895 1.66238 7.4093L1.44943 6.76281L1.62406 6.78948C1.45846 6.62258 1.32771 6.45317 1.22635 6.29911C0.865868 5.75159 0.675013 5.08256 0.715623 4.50923L0.755688 3.94494L1.09352 4.07581C0.951007 3.80667 0.848013 3.51925 0.787479 3.21799C0.639956 2.48331 0.763418 1.7028 1.13522 1.02027L1.4295 0.480042L1.82308 0.952771C3.06783 2.44804 4.64442 3.33503 6.51562 3.5947C6.43919 3.06786 6.49646 2.55942 6.68601 2.10367C6.90669 1.57302 7.29929 1.12305 7.82101 0.802307C8.40043 0.446182 9.1031 0.273618 9.79956 0.316405C10.5385 0.361805 11.2094 0.638671 11.7422 1.11761C12.0024 1.04999 12.1941 0.977812 12.4532 0.880261C12.6091 0.821578 12.7859 0.754948 13.0072 0.678736L13.8224 0.397842L13.2908 1.91619C13.3259 1.91325 13.362 1.91075 13.3998 1.90912L14.2703 1.8697L13.7558 2.57292C13.7263 2.6132 13.7188 2.62463 13.7083 2.64042C13.6668 2.70291 13.6152 2.78065 12.909 3.72371C12.7322 3.95986 12.6439 4.26742 12.6603 4.58991C12.7229 5.81539 12.5726 6.92416 12.2132 7.88529C11.8733 8.7946 11.3465 9.57479 10.6478 10.2042C9.78312 10.9829 8.68056 11.516 7.3706 11.7886C6.72803 11.9223 6.03799 11.9894 5.32379 11.9894Z" fill="black"/>
</svg>
