<svg width="16" height="15" viewBox="0 0 16 15" fill="none" xmlns="http://www.w3.org/2000/svg">
<g clip-path="url(#clip0_1_423)">
<path d="M0.810791 4.15084L1.0048 4.873L1.0195 4.86318C1.41515 4.6005 1.72805 4.39302 2.0796 4.39302C2.39371 4.39302 2.69431 4.5621 2.91815 4.89514C4.13612 6.70587 5.07809 13.0026 7.35725 13.0026C9.60669 13.0026 15.256 6.13731 15.0769 3.03947C14.9879 1.50058 13.8877 1.27063 13.2396 1.27063C11.9917 1.27063 10.7478 2.04274 10.12 3.51945C11.1915 3.34731 11.9507 3.94903 11.8691 5.05103C11.7748 6.30269 9.6792 9.53689 8.70402 9.53689C7.03695 9.53689 6.25698 3.90496 5.69922 2.19536C5.55953 1.76861 5.15561 1.50342 4.64434 1.50342C4.28136 1.50342 3.90563 1.64294 3.58587 1.89668C2.84912 2.48095 2.098 3.08201 1.36899 3.6881L0.810791 4.15084Z" fill="black"/>
</g>
<defs>
<clipPath id="clip0_1_423">
<rect width="14.2703" height="14.2703" fill="white" transform="translate(0.810822)"/>
</clipPath>
</defs>
</svg>
