<svg width="15" height="15" viewBox="0 0 15 15" fill="none" xmlns="http://www.w3.org/2000/svg">
<g clip-path="url(#clip0_2119_665)">
<path d="M11.2079 3.20502C11.6445 2.71846 11.899 2.20904 11.9883 1.68612C10.7538 0.65237 9.16577 0 7.43337 0C6.53887 0 5.68584 0.173109 4.89673 0.475995C6.21813 1.7999 7.32319 3.36746 8.18754 5.05957C9.46114 4.59904 10.5227 3.96898 11.2079 3.20502Z" fill="black"/>
<path d="M11.83 3.76354C11.063 4.61842 9.92291 5.31369 8.56079 5.81897C8.73009 6.19023 8.88567 6.56921 9.0321 6.9531C9.73162 6.80264 10.4566 6.71706 11.196 6.71706C12.3599 6.71706 13.4907 6.91456 14.5334 7.27754C14.5344 7.22975 14.5406 7.18326 14.5406 7.13514C14.5406 5.29463 13.8314 3.6207 12.6795 2.35712C12.5095 2.84683 12.2274 3.32076 11.83 3.76354Z" fill="black"/>
<path d="M0.43335 5.63324C1.32208 5.79034 2.30674 5.88092 3.25263 5.88092C4.71894 5.88092 6.12744 5.67276 7.38275 5.31522C6.51775 3.65326 5.40571 2.1237 4.07844 0.844543C2.27211 1.81602 0.878425 3.57389 0.43335 5.63324Z" fill="black"/>
<path d="M14.4612 8.13842C13.4526 7.75878 12.3425 7.55322 11.1958 7.55322C10.5531 7.55322 9.92181 7.62062 9.31299 7.74364C9.93106 9.59722 10.2887 11.6007 10.3498 13.6372C12.5242 12.6535 14.1137 10.5815 14.4612 8.13842Z" fill="black"/>
<path d="M0.270264 7.13516C0.270264 9.33397 1.33015 11.3302 2.90337 12.6348C3.07006 11.5259 3.57 10.435 4.38427 9.522C5.35281 8.43609 6.69685 7.62292 8.2189 7.15879C8.07726 6.79341 7.92255 6.43522 7.75924 6.08203C6.39919 6.48541 4.86734 6.71709 3.25253 6.71709C2.26461 6.71709 1.23652 6.6227 0.304559 6.45895C0.283437 6.68182 0.270264 6.90697 0.270264 7.13516V7.13516Z" fill="black"/>
<path d="M5.00867 10.0784C4.18613 11.0008 3.74051 12.0826 3.68335 13.1893C4.7735 13.8701 6.05614 14.2703 7.43339 14.2703C8.15751 14.2703 8.85615 14.1601 9.51494 13.9579C9.48293 11.8763 9.13345 9.82944 8.49806 7.9455C7.1072 8.36259 5.88379 9.09716 5.00867 10.0784Z" fill="black"/>
</g>
<defs>
<clipPath id="clip0_2119_665">
<rect width="14.2703" height="14.2703" fill="white" transform="translate(0.270264)"/>
</clipPath>
</defs>
</svg>
