<svg width="15" height="15" viewBox="0 0 15 15" fill="none" xmlns="http://www.w3.org/2000/svg">
<g clip-path="url(#clip0_2119_663)">
<path d="M5.32379 12.9894C4.70669 12.9894 4.07153 12.9394 3.43255 12.8393C2.30713 12.6627 1.16788 12.074 0.845509 11.8977L0 11.4354L0.915405 11.1344C1.91606 10.8054 2.52477 10.6012 3.27828 10.2816C2.52379 9.91621 1.9423 9.25895 1.66238 8.4093L1.44943 7.76281L1.62406 7.78948C1.45846 7.62258 1.32771 7.45317 1.22635 7.29911C0.865868 6.75159 0.675013 6.08256 0.715623 5.50923L0.755688 4.94494L1.09352 5.07581C0.951007 4.80667 0.848013 4.51925 0.787479 4.21799C0.639956 3.48331 0.763418 2.7028 1.13522 2.02027L1.4295 1.48004L1.82308 1.95277C3.06783 3.44804 4.64442 4.33503 6.51562 4.5947C6.43919 4.06786 6.49646 3.55942 6.68601 3.10367C6.90669 2.57302 7.29929 2.12305 7.82101 1.80231C8.40043 1.44618 9.1031 1.27362 9.79956 1.3164C10.5385 1.36181 11.2094 1.63867 11.7422 2.11761C12.0024 2.04999 12.1941 1.97781 12.4532 1.88026C12.6091 1.82158 12.7859 1.75495 13.0072 1.67874L13.8224 1.39784L13.2908 2.91619C13.3259 2.91325 13.362 2.91075 13.3998 2.90912L14.2703 2.8697L13.7558 3.57292C13.7263 3.6132 13.7188 3.62463 13.7083 3.64042C13.6668 3.70291 13.6152 3.78065 12.909 4.72371C12.7322 4.95986 12.6439 5.26742 12.6603 5.58991C12.7229 6.81539 12.5726 7.92416 12.2132 8.88529C11.8733 9.7946 11.3465 10.5748 10.6478 11.2042C9.78312 11.9829 8.68056 12.516 7.3706 12.7886C6.72803 12.9223 6.03799 12.9894 5.32379 12.9894Z" fill="black"/>
</g>
<defs>
<clipPath id="clip0_2119_663">
<rect width="14.2703" height="14.2703" fill="white"/>
</clipPath>
</defs>
</svg>
