<svg width="15" height="15" viewBox="0 0 15 15" fill="none" xmlns="http://www.w3.org/2000/svg">
<g clip-path="url(#clip0_2119_672)">
<path d="M5.58538 5.0448H3.91309V6.7171H5.58538C6.04635 6.7171 6.42153 6.34192 6.42153 5.88095C6.42153 5.41998 6.04635 5.0448 5.58538 5.0448Z" fill="black"/>
<path d="M5.58538 7.55322H3.91309V9.22552H5.58538C6.04635 9.22552 6.42153 8.85034 6.42153 8.38937C6.42153 7.9284 6.04635 7.55322 5.58538 7.55322Z" fill="black"/>
<path d="M10.184 6.71704C9.639 6.71704 9.174 7.06652 9.00122 7.55319H11.3668C11.194 7.06652 10.729 6.71704 10.184 6.71704Z" fill="black"/>
<path d="M12.6926 0H2.6309C1.47836 0 0.540527 0.937837 0.540527 2.09037V12.1799C0.540527 13.3324 1.47836 14.2703 2.6309 14.2703H12.6926C13.8451 14.2703 14.8108 13.3324 14.8108 12.1799V2.09037C14.8108 0.937837 13.8451 0 12.6926 0ZM8.51181 4.20861H11.8564V5.04476H8.51181V4.20861ZM7.25759 8.38936C7.25759 9.31163 6.50756 10.0617 5.58529 10.0617H3.07684V4.20861H5.58529C6.50756 4.20861 7.25759 4.95864 7.25759 5.88091C7.25759 6.38282 7.03091 6.82844 6.6798 7.13514C7.03091 7.44183 7.25759 7.88745 7.25759 8.38936ZM12.2745 8.38936H9.00131C9.17398 8.87602 9.63909 9.22551 10.1841 9.22551C10.6304 9.22551 11.0468 8.98501 11.2709 8.59796L11.9943 9.0169C11.6217 9.66111 10.9279 10.0617 10.1841 10.0617C9.03157 10.0617 8.09374 9.12382 8.09374 7.97128C8.09374 6.81875 9.03157 5.88091 10.1841 5.88091C11.3366 5.88091 12.2745 6.81875 12.2745 7.97128V8.38936Z" fill="black"/>
</g>
<defs>
<clipPath id="clip0_2119_672">
<rect width="14.2703" height="14.2703" fill="white" transform="translate(0.540527)"/>
</clipPath>
</defs>
</svg>
