<svg width="686" height="610" viewBox="0 0 686 610" fill="none" xmlns="http://www.w3.org/2000/svg">
<path d="M79.5 530.5V152.531C84.6492 156.702 89.6855 160.888 94.5657 165.068C116.348 183.724 131.982 199.693 140.847 211.565C140.425 213.142 139.991 214.756 139.548 216.404C131.938 244.741 121.631 283.116 117.597 314.006C115.115 333.012 112.5 364.202 123.266 393.714C129.374 410.455 141.036 430.043 162.238 444.356C183.583 458.765 206.774 462.549 226.318 461.607C248.746 460.526 276.753 452.706 295.607 447.443C297.165 447.008 298.661 446.59 300.085 446.196C324.021 439.562 345.859 433.601 365.995 430.408C375.751 428.861 383.55 428.24 389.554 428.3C404.691 476.304 439.188 505.914 471.795 523.559C476.376 526.038 481.036 528.347 485.735 530.5H79.5Z" stroke="url(#paint0_linear_2119_731)" stroke-width="159"/>
<defs>
<linearGradient id="paint0_linear_2119_731" x1="343" y1="0" x2="343" y2="610" gradientUnits="userSpaceOnUse">
<stop stop-color="#6C1945"/>
<stop offset="1" stop-color="#98194E"/>
</linearGradient>
</defs>
</svg>
