<svg width="171" height="40" viewBox="0 0 171 40" fill="none" xmlns="http://www.w3.org/2000/svg">
<path d="M170.612 26.537C170.429 27.3477 169.965 27.8673 169.137 28.1998C168.7 28.3802 159.418 28.4867 158.318 28.3303C157.461 28.2107 156.455 27.8844 155.951 27.5659C155.475 27.2566 154.858 26.5805 154.605 26.0822C154.258 25.4051 154.031 24.3227 154.028 23.3525C154.012 21.2803 154.724 19.8273 156.09 19.1163C157.224 18.5379 157.494 18.5088 162.68 18.4348L167.382 18.3625L167.378 17.3264C167.366 16.4128 167.337 16.2433 167.141 15.8955C167.019 15.6698 166.757 15.3787 166.561 15.2381C165.889 14.7788 165.47 14.7425 160.042 14.7608L155.033 14.7776L155.027 13.1763L155.022 11.5751L160.404 11.557C166.409 11.5368 166.81 11.5731 168.125 12.1998C168.899 12.5646 169.767 13.4188 170.142 14.1805C170.649 15.2149 170.678 15.5351 170.687 21.083C170.687 23.8805 170.658 26.3297 170.612 26.537ZM163.108 21.1085C158.583 21.1237 158.434 21.1336 157.886 21.5687C157.171 22.1457 157.093 23.7755 157.747 24.4986C157.831 24.6019 158.074 24.7706 158.279 24.883C158.643 25.0702 158.764 25.0792 162.814 25.0938L166.985 25.1081L167.217 24.8718L167.449 24.6261L167.425 22.8648L167.391 21.0941L163.108 21.1085Z" fill="#98194E"/>
<path d="M169.084 37.1483C168.963 37.1487 168.85 36.9795 168.681 36.5091L168.446 35.8788L167.254 35.8828L166.053 35.8868L165.841 36.4904C165.601 37.1788 165.592 37.1882 165.415 37.1417C165.313 37.1232 165.395 36.8121 165.773 35.7465C166.041 34.992 166.438 33.8604 166.659 33.2191C167.203 31.6254 167.249 31.6441 167.992 33.6668C169.27 37.1476 169.27 37.1476 169.084 37.1483ZM167.845 34.1853C167.252 32.5389 167.253 32.5484 167.123 32.8879C166.976 33.2652 166.182 35.4908 166.182 35.5285C166.183 35.5473 166.667 35.5551 167.253 35.5531C167.84 35.5511 168.324 35.5401 168.324 35.5213C168.324 35.5118 168.108 34.9097 167.845 34.1853Z" fill="#98194E"/>
<path d="M164.689 37.163C164.549 37.1635 164.39 36.9286 164.015 36.148L163.527 35.1418L162.624 35.1166L161.712 35.0914L161.715 36.1369C161.718 37.1071 161.709 37.173 161.532 37.1736C161.346 37.1743 161.346 37.1083 161.338 34.6311L161.329 32.0879L162.521 32.0839C163.536 32.0805 163.75 32.108 164.011 32.2673C164.459 32.5389 164.684 32.9715 164.686 33.5649C164.688 34.1394 164.531 34.4979 164.15 34.8289L163.881 35.0558L164.378 36.1091C164.819 37.0496 164.856 37.1625 164.689 37.163ZM164.275 33.067C164.049 32.5215 163.667 32.3626 162.615 32.3662L161.703 32.3692L161.707 33.6031L161.711 34.837L162.726 34.796C163.843 34.764 164.029 34.6786 164.278 34.1031C164.435 33.7353 164.434 33.4621 164.275 33.067Z" fill="#98194E"/>
<path d="M160.182 37.1782C160.061 37.1786 160.041 36.8301 160.034 34.6355C160.027 32.4408 160.044 32.0922 160.165 32.0918C160.286 32.0914 160.306 32.4399 160.313 34.6345C160.321 36.8292 160.303 37.1778 160.182 37.1782Z" fill="#98194E"/>
<path d="M157.575 37.1869L156.039 37.1921L156.03 34.6489L156.022 32.1057L157.558 32.1006C158.862 32.0962 159.095 32.1142 159.095 32.2367C159.095 32.3591 158.881 32.3787 157.745 32.3825L156.395 32.387L156.399 33.4232L156.402 34.4593L157.575 34.4553C158.6 34.4519 158.739 34.4703 158.712 34.6022C158.684 34.7342 158.526 34.7535 157.548 34.7474L156.403 34.7324L156.407 35.8156L156.41 36.9083L157.761 36.9037C158.896 36.8999 159.111 36.918 159.111 37.0405C159.111 37.1629 158.879 37.1825 157.575 37.1869Z" fill="#98194E"/>
<path d="M154.957 33.8519C154.643 34.7289 154.247 35.8511 154.081 36.3321C153.61 37.69 153.582 37.6525 152.52 34.7078C152.041 33.3624 151.646 32.224 151.646 32.1864C151.646 32.1393 151.711 32.1202 151.795 32.1388C151.953 32.1665 151.991 32.2606 152.959 34.9701C153.288 35.892 153.579 36.6069 153.616 36.5691C153.653 36.5313 153.801 36.1352 153.957 35.692C155.184 32.2027 155.221 32.1084 155.389 32.1079C155.482 32.1075 155.556 32.1356 155.547 32.1733C155.538 32.2204 155.28 32.9654 154.957 33.8519Z" fill="#98194E"/>
<path d="M153.478 14.7828C151.522 14.7611 147.091 14.889 146.83 14.9746C146.365 15.1363 146.059 15.4011 145.855 15.8162C145.689 16.1559 145.681 16.5515 145.654 22.2974L145.628 28.42L144.054 28.4535C142.853 28.4764 142.462 28.4495 142.396 28.3649C142.303 28.2051 142.264 16.5159 142.362 15.3852C142.506 13.7364 143.107 12.67 144.223 12.1105C144.557 11.9398 145.05 11.7592 145.329 11.7018C145.608 11.6443 147.498 11.6003 149.677 11.593L153.532 11.58L153.537 13.1813C153.54 14.0573 153.515 14.7826 153.478 14.7828Z" fill="#98194E"/>
<path d="M150.639 37.2102L149.242 37.2149L149.233 34.6717C149.226 32.4865 149.243 32.1285 149.364 32.1281C149.476 32.1277 149.505 32.4761 149.531 34.5012L149.567 36.8841L150.805 36.9082C151.811 36.9237 152.034 36.9512 152.035 37.0642C152.035 37.1867 151.802 37.2063 150.639 37.2102Z" fill="#98194E"/>
<path d="M147.985 37.2191C147.864 37.2195 147.844 36.8711 147.837 34.6764C147.829 32.4818 147.847 32.1332 147.968 32.1328C148.089 32.1324 148.109 32.4808 148.116 34.6755C148.123 36.8702 148.106 37.2187 147.985 37.2191Z" fill="#98194E"/>
<path d="M146.949 36.5162C146.866 36.6766 146.652 36.9128 146.467 37.0359C146.179 37.244 146.03 37.2728 145.331 37.2751C144.605 37.2776 144.484 37.2497 144.139 37.0154C143.924 36.8748 143.662 36.5931 143.559 36.3863C143.325 35.9349 143.325 35.9161 143.548 35.9153C143.651 35.915 143.763 36.0277 143.838 36.1875C144.195 37.0623 145.806 37.3018 146.474 36.5837C146.855 36.1774 146.89 35.7346 146.582 35.3588C146.386 35.124 146.134 35.0024 145.286 34.7415C144.708 34.5551 144.12 34.3216 143.99 34.2184C143.551 33.8713 143.474 33.1652 143.807 32.6366C144.289 31.8814 145.984 31.8474 146.638 32.58C146.843 32.8053 147.097 33.4167 147.023 33.4923C146.883 33.6247 146.743 33.5309 146.631 33.2205C146.17 31.9504 143.917 32.1087 143.922 33.418C143.923 33.8324 144.287 34.0761 145.424 34.4396C146.72 34.8403 147.009 35.0748 147.058 35.7811C147.087 36.0636 147.041 36.3369 146.949 36.5162Z" fill="#98194E"/>
<path d="M139.884 37.2463L138.348 37.2515L138.339 34.7083L138.331 32.1651L139.867 32.1599C141.171 32.1556 141.404 32.1736 141.404 32.2961C141.404 32.4185 141.19 32.4381 140.054 32.4419L138.704 32.4464L138.708 33.4825L138.711 34.5187L139.884 34.5147C140.909 34.5113 141.048 34.5296 141.021 34.6616C140.993 34.7936 140.835 34.8129 139.858 34.8068L138.712 34.7918L138.716 35.875L138.72 36.9676L140.07 36.9631C141.206 36.9593 141.42 36.9774 141.42 37.0999C141.421 37.2223 141.188 37.2419 139.884 37.2463Z" fill="#98194E"/>
<path d="M140.739 17.3217C140.53 18.8671 140.346 19.4235 139.827 20.0658C139.391 20.6041 138.685 21.0398 137.792 21.3254L137.038 21.5634L132.383 21.6073C129.822 21.6347 127.625 21.6797 127.504 21.7084C127.29 21.7562 127.29 21.7656 127.331 22.7169C127.391 24.0448 127.7 24.6089 128.577 25.011C128.922 25.17 129.387 25.1778 134.471 25.189L139.984 25.1987L139.97 26.8189L139.948 28.4391L134.082 28.4588L128.216 28.4785L127.508 28.236C125.876 27.6763 124.839 26.6154 124.321 24.9593C124.105 24.263 124.105 24.1877 124.091 20.1092C124.079 16.4357 124.095 15.8987 124.243 15.3613C124.73 13.5512 126.001 12.2848 127.76 11.8832C128.783 11.6443 136.428 11.6186 137.36 11.851C139.018 12.2599 140.13 13.3394 140.545 14.9487C140.696 15.5227 140.803 16.8505 140.739 17.3217ZM137.43 16.3155C137.298 15.8167 136.766 15.2628 136.244 15.0573C135.852 14.9079 135.461 14.8904 132.407 14.9006L129.008 14.9121L128.469 15.1776C127.568 15.6328 127.327 16.1893 127.268 18.0074L127.234 19.0248L131.713 18.9815L136.191 18.9382L136.628 18.673C137.381 18.2278 137.704 17.2848 137.43 16.3155Z" fill="#98194E"/>
<path d="M140.274 31.2826C140.219 31.4901 140.126 31.594 140.014 31.5943C139.856 31.5949 139.847 31.5667 139.957 31.1895C140.021 30.9632 140.133 30.7839 140.226 30.7647C140.393 30.7265 140.403 30.8301 140.274 31.2826Z" fill="#98194E"/>
<path d="M137.517 36.6514C136.832 37.7935 134.419 37.4719 134.099 36.1919C134.004 35.8155 134.265 35.8806 134.537 36.2941C134.864 36.8111 135.303 37.0262 135.973 37.024C136.876 37.0115 137.415 36.5764 137.412 35.8606C137.411 35.3896 137.065 35.127 136.003 34.8009C134.521 34.3538 134.241 34.1192 134.238 33.3092C134.236 32.8759 134.579 32.4038 135.044 32.2138C135.407 32.0525 136.254 32.0402 136.627 32.1803C137.112 32.3576 137.682 33.0621 137.684 33.486C137.684 33.7026 137.395 33.5623 137.273 33.2707C136.757 32.0574 134.792 32.0545 134.554 33.2704C134.463 33.7511 134.827 34.0796 135.796 34.3777C136.999 34.7505 137.325 34.9095 137.513 35.2291C137.747 35.5957 137.739 36.2739 137.517 36.6514Z" fill="#98194E"/>
<path d="M133.427 35.9305C133.114 36.8358 132.38 37.3658 131.449 37.3689C130.695 37.3714 130.275 37.2127 129.836 36.7715C129.191 36.1237 128.954 34.8811 129.258 33.7121C129.524 32.6845 130.277 32.098 131.319 32.0945C132.269 32.0913 132.913 32.4659 133.335 33.2652C133.616 33.8105 133.667 35.2327 133.427 35.9305ZM133.009 33.4264C132.7 32.7963 132.242 32.4682 131.6 32.4044C130.277 32.2676 129.461 33.1651 129.457 34.7382C129.461 36.0474 130.079 36.9119 131.085 37.0498C131.83 37.151 132.657 36.7714 132.963 36.1958C133.36 35.4409 133.384 34.1692 133.009 33.4264Z" fill="#98194E"/>
<path d="M128.244 36.692C128.05 37.1636 127.603 37.4006 127.007 37.3555C126.607 37.3286 126.458 37.2632 126.243 37.0472C125.897 36.681 125.794 36.3517 126.036 36.3509C126.129 36.3506 126.259 36.4538 126.316 36.5854C126.372 36.7077 126.559 36.8766 126.717 36.9703C126.969 37.0919 127.081 37.1009 127.379 37.0152C128.021 36.8152 128.057 36.6738 128.077 34.3001C128.099 32.5763 128.126 32.1994 128.238 32.199C128.424 32.1984 128.438 36.2486 128.244 36.692Z" fill="#98194E"/>
<path d="M124.19 35.6318C123.896 36.8102 123.162 37.3967 121.989 37.4006C121.132 37.4035 120.47 37.0007 120.067 36.2296C119.786 35.6937 119.715 34.1868 119.946 33.5738C120.306 32.6213 121.003 32.1291 122.008 32.1257C123.014 32.1318 123.546 32.4503 123.996 33.3247C124.23 33.7761 124.337 35.0285 124.19 35.6318ZM123.68 33.4765C123.314 32.6771 122.689 32.3401 121.777 32.4374C120.511 32.5735 119.771 34.1113 120.233 35.6639C120.788 37.5742 123.256 37.5942 123.827 35.699C123.864 35.567 123.899 35.1241 123.898 34.7097C123.905 34.1068 123.858 33.8621 123.68 33.4765Z" fill="#98194E"/>
<path d="M122.089 28.5085C122.024 28.5275 121.279 28.5394 120.441 28.5328L118.905 28.5097L118.864 16.4532L118.824 4.39664L120.332 4.36332C121.608 4.3402 121.859 4.35819 121.981 4.48023C122.112 4.62108 122.134 5.77016 122.17 16.5457C122.203 26.1815 122.192 28.4704 122.089 28.5085Z" fill="#98194E"/>
<path d="M119.4 37.3151C119.316 37.3154 119.232 37.2591 119.213 37.1933C119.195 37.1368 119.082 36.8358 118.978 36.5347L118.781 35.9985L117.589 36.0025L116.407 36.0064L116.186 36.6665C116.02 37.1475 115.918 37.3268 115.797 37.3272C115.704 37.3275 115.629 37.3183 115.629 37.2995C115.629 37.2807 115.906 36.5074 116.238 35.5737C116.957 33.5744 117.179 32.952 117.298 32.5372C117.427 32.1129 117.725 32.1495 117.904 32.6105C118.251 33.523 119.539 37.1639 119.539 37.2393C119.54 37.2769 119.475 37.3148 119.4 37.3151ZM118.114 34.1451C117.841 33.4019 117.597 32.8282 117.56 32.866C117.495 32.9321 116.757 34.988 116.601 35.5066C116.546 35.7234 116.546 35.7234 117.57 35.72C118.296 35.7175 118.603 35.6882 118.603 35.6035C118.603 35.5469 118.386 34.8883 118.114 34.1451Z" fill="#98194E"/>
<path d="M118.439 31.177C118.272 31.4225 117.909 31.4425 117.564 31.2459C117.256 31.0679 116.912 31.0691 116.912 31.2481C116.913 31.3234 116.848 31.3896 116.773 31.3898C116.596 31.3904 116.595 31.0702 116.772 30.9189C116.929 30.7865 117.367 30.8321 117.824 31.0189C118.113 31.1404 118.15 31.1309 118.271 30.9703C118.465 30.6965 118.634 30.9032 118.439 31.177Z" fill="#98194E"/>
<path d="M117.111 18.3618C116.918 19.2196 116.659 19.7385 116.177 20.2676C115.658 20.8346 115.109 21.1661 114.226 21.4422C113.602 21.6327 113.351 21.6429 108.714 21.6962L103.854 21.7408L103.79 22.0801C103.69 22.6456 103.832 23.6153 104.095 24.1607C104.357 24.6967 104.768 25.025 105.402 25.2019C105.644 25.267 107.544 25.2983 111.101 25.2863L116.427 25.2684L116.432 26.9168L116.438 28.5652L111.112 28.583C108.076 28.5932 105.497 28.5548 105.125 28.509C102.786 28.1777 101.47 27.0989 100.811 24.9724C100.66 24.4831 100.64 24.0028 100.627 20.2351C100.612 15.6856 100.639 15.3653 101.12 14.3935C101.841 12.9499 103.123 12.1167 105.069 11.837C105.562 11.76 107.051 11.7362 109.444 11.7564C112.517 11.7743 113.178 11.8098 113.728 11.9492C115.536 12.3953 116.563 13.3432 117.016 14.9524C117.214 15.6487 117.267 17.6454 117.111 18.3618ZM113.667 15.8678C113.48 15.5765 113.246 15.3983 112.873 15.2206L112.342 14.9681L108.943 14.9795L105.545 14.9909L104.987 15.2753C104.606 15.465 104.346 15.6825 104.161 15.9563C103.91 16.3245 103.892 16.4376 103.822 17.587C103.787 18.2653 103.779 18.887 103.808 18.9622C103.845 19.0751 104.525 19.0917 108.11 19.0797C110.81 19.0706 112.486 19.0273 112.709 18.9606C113.155 18.8366 113.768 18.2788 113.888 17.8923C113.934 17.732 113.96 17.2986 113.95 16.9313C113.929 16.3756 113.882 16.1968 113.667 15.8678Z" fill="#98194E"/>
<path d="M115.169 36.2555C114.957 36.7366 114.4 37.2189 113.888 37.3525C113.442 37.4858 113.331 37.7123 113.601 37.9563C113.863 38.2003 113.8 38.7468 113.484 38.9269C113.196 39.0879 112.73 39.0047 112.804 38.8067C112.831 38.7312 112.961 38.6743 113.092 38.6833C113.231 38.6922 113.371 38.6352 113.436 38.5314C113.519 38.3898 113.5 38.324 113.295 38.1551C113.108 37.9956 113.061 37.9016 113.117 37.7601C113.237 37.4583 113.227 37.43 112.929 37.4311C112.277 37.4332 111.577 36.9269 111.249 36.2404C110.959 35.6292 110.889 34.4708 111.092 33.7637C111.396 32.7077 112.111 32.159 113.191 32.1554C113.88 32.1531 114.402 32.3585 114.794 32.7717C115.103 33.1097 115.403 33.7775 115.254 33.8251C115.078 33.8822 115.049 33.854 114.843 33.4497C114.534 32.8573 114.067 32.5292 113.443 32.4654C112.121 32.3285 111.304 33.2261 111.3 34.7991C111.295 36.099 111.913 36.9729 112.928 37.1108C113.785 37.2304 114.51 36.8323 114.88 36.0493C115.065 35.6625 115.241 35.5488 115.317 35.7841C115.326 35.8311 115.262 36.0386 115.169 36.2555Z" fill="#98194E"/>
<path d="M110.61 37.3447C110.48 37.3451 110.377 37.1853 110.217 36.7055L109.992 36.0751L108.791 36.0792L107.589 36.0832L107.359 36.7151C107.193 37.1866 107.082 37.3565 106.961 37.3569C106.802 37.3575 106.802 37.3198 107.005 36.7634C107.125 36.4427 107.356 35.7732 107.531 35.2828C108.361 32.8498 108.582 32.3122 108.769 32.2833C108.927 32.2639 109.03 32.4802 109.537 33.882C109.857 34.7757 110.271 35.9235 110.449 36.4221C110.759 37.2688 110.769 37.3441 110.61 37.3447ZM109.371 34.3817C108.779 32.7354 108.779 32.7448 108.65 33.0843C108.502 33.4616 107.709 35.6872 107.709 35.7249C107.709 35.7437 108.194 35.7515 108.78 35.7495C109.367 35.7476 109.851 35.7365 109.851 35.7177C109.851 35.7083 109.635 35.1061 109.371 34.3817Z" fill="#98194E"/>
<path d="M106.379 35.9742C106.222 36.4739 105.795 36.9746 105.349 37.1833C105.052 37.3256 104.745 37.3643 103.879 37.3672L102.78 37.3709L102.771 34.8277L102.763 32.2846L103.88 32.2808C104.625 32.2783 105.109 32.3238 105.305 32.4079C105.734 32.5854 106.267 33.2336 106.39 33.7324C106.522 34.2594 106.517 35.5122 106.379 35.9742ZM106.026 33.63C105.876 33.2254 105.381 32.7561 104.999 32.6538C104.822 32.6073 104.309 32.5619 103.853 32.5635L103.043 32.5662L103.069 34.7985L103.105 37.0401L103.822 37.066C104.222 37.0835 104.725 37.0441 104.939 36.9775C105.488 36.8343 105.979 36.2864 106.108 35.6925C106.218 35.1741 106.177 34.0251 106.026 33.63Z" fill="#98194E"/>
<path d="M101.783 37.3083C101.607 37.4973 101.355 37.1873 100.007 35.1573L98.5285 32.9299L98.508 35.1623C98.4966 37.31 98.4876 37.3854 98.3107 37.3859C98.1244 37.3866 98.1242 37.3301 98.1346 34.8622C98.1545 32.479 98.1634 32.3471 98.331 32.3466C98.452 32.3462 98.929 32.9851 99.9677 34.5263L101.428 36.7161L101.448 34.5025C101.46 32.3643 101.469 32.2889 101.646 32.2883C101.822 32.2877 101.832 32.3536 101.84 34.765C101.845 36.1307 101.821 37.28 101.783 37.3083Z" fill="#98194E"/>
<path d="M94.8641 28.6376C92.2849 28.6463 89.9384 28.6071 89.5751 28.5612C86.5569 28.1286 84.7442 26.2508 84.0063 22.787C83.713 21.4128 83.6769 18.9545 83.9337 17.7951C84.5848 14.8352 85.7711 13.1828 87.8168 12.3659C89.1465 11.8434 89.6771 11.7945 94.7982 11.7773L99.435 11.7617L99.4218 13.3631L99.3992 14.955L94.8369 15.008C89.9953 15.0619 89.865 15.0718 88.9634 15.5458C87.7458 16.181 87.1273 17.7749 87.1356 20.2333C87.154 22.9554 87.8668 24.479 89.4145 25.0954C89.9273 25.3009 90.0297 25.3006 94.7133 25.3225L99.4807 25.3442L99.4862 26.9831L99.4917 28.6221L94.8641 28.6376Z" fill="#98194E"/>
<path d="M97.0597 36.4105C96.8933 36.7879 96.2342 37.3552 95.8713 37.4318C95.3037 37.5468 94.81 37.4919 94.3343 37.2486C93.9426 37.0615 93.8025 36.9207 93.6149 36.5257C93.3806 36.065 93.3711 35.9896 93.365 34.1812C93.3596 32.5893 93.3773 32.3161 93.4984 32.3157C93.6194 32.3153 93.6389 32.5695 93.6438 34.0295C93.6591 35.8191 93.7351 36.271 94.0903 36.6654C94.3146 36.9284 94.9394 37.2089 95.2839 37.2077C95.7122 37.2063 96.2977 36.8841 96.5944 36.4875L96.8632 36.138L96.8847 34.2164C96.9074 32.6528 96.9341 32.3042 97.0459 32.3038C97.2321 32.3032 97.2444 35.9766 97.0597 36.4105Z" fill="#98194E"/>
<path d="M91.4975 32.605L90.287 32.609L90.2905 33.6451L90.294 34.6813L91.3182 34.6778C92.1655 34.675 92.3425 34.7026 92.3429 34.8157C92.3433 34.9287 92.1665 34.9575 91.3192 34.9604L90.295 34.9638L90.2991 36.1883C90.303 37.3469 90.2939 37.4128 90.117 37.4134C89.9307 37.4141 89.9305 37.3481 89.9222 34.8709L89.9137 32.3277L91.3103 32.323C92.4928 32.319 92.707 32.3372 92.7074 32.4596C92.7078 32.5821 92.5124 32.6016 91.4975 32.605Z" fill="#98194E"/>
<path d="M83.067 28.6772C81.4004 28.6828 81.0558 28.6652 80.9623 28.543C80.8968 28.4585 80.2018 26.6806 79.4126 24.5827C78.6235 22.4849 77.9098 20.6787 77.8256 20.5848C77.6854 20.4158 77.4805 20.407 73.3651 20.4208C69.3706 20.4343 69.0355 20.4448 68.8963 20.596C68.7665 20.7471 68.4341 21.5771 67.4466 24.2084C67.2989 24.5951 67.0128 25.359 66.8005 25.9061C66.5882 26.4531 66.2929 27.2359 66.1453 27.6508C65.7209 28.8108 65.8882 28.7349 63.6257 28.7425L61.6797 28.7491L61.7348 28.5322C61.8177 28.2682 62.8238 25.6369 65.196 19.4593C65.6022 18.4218 66.2021 16.8467 66.5344 15.9696C66.8759 15.0831 67.3374 13.8758 67.5682 13.2817C68.1312 11.8009 68.5465 10.7069 68.805 10.0279C69.6262 7.81156 70.7685 6.94115 73.0213 6.79229C74.1198 6.72267 75.2378 6.9073 75.9933 7.29096C76.5902 7.59037 77.2816 8.31333 77.5817 8.94342C77.7037 9.21616 78.4738 11.1916 79.2818 13.3365C80.0897 15.4814 81.2359 18.5294 81.8371 20.1098C83.8477 25.4532 84.7965 27.965 84.928 28.3131L85.0503 28.6706L83.067 28.6772ZM75.5137 14.1969C74.8089 12.2966 74.2927 11.055 74.1619 10.9235C73.6947 10.4447 72.7734 10.5985 72.4775 11.2023C72.3387 11.4666 71.0924 14.6639 70.4927 16.286C70.345 16.6727 70.142 17.2197 70.0404 17.4838L69.8466 17.9837L73.3848 17.9718L76.923 17.9599L76.7821 17.6024C76.707 17.4143 76.1338 15.8809 75.5137 14.1969Z" fill="#98194E"/>
<path d="M57.787 28.5643C57.2117 29.1502 53.972 29.3306 52.0989 28.8754C49.4431 28.2344 46.9435 26.9712 44.5441 25.0483C43.6571 24.3354 41.4712 22.214 40.0975 20.7209C39.6956 20.2796 38.8545 19.3687 38.2378 18.702C35.9014 16.1572 34.8831 15.134 33.9775 14.4117C31.5874 12.4982 28.7936 12.3663 25.5589 14.0067C23.4395 15.0782 22.6228 15.8627 18.5792 20.6519C16.1772 23.4952 14.915 24.7051 13.0755 25.9263C10.149 27.8671 6.24199 28.9635 2.7871 28.8244C1.53927 28.7815 1.22231 28.6695 0.941401 28.1995C0.707234 27.7858 0.752492 27.3995 1.12294 26.8048C1.63236 26.0024 4.36021 23.1392 13.918 13.4147C18.6597 8.5761 23.0488 4.0872 23.6611 3.42579C24.6631 2.35805 24.8488 2.1973 25.5646 1.84638C27.1448 1.05927 29.0341 0.789189 30.6088 1.11358C32.7332 1.55857 33.946 2.25152 35.3013 3.81999C35.6566 4.24267 39.6367 8.27959 44.1398 12.7951C54.9399 23.6381 55.5472 24.2672 56.7633 25.9492C57.3152 26.7009 57.8111 27.4339 57.8675 27.575C58.0178 27.9701 57.9818 28.3658 57.787 28.5643Z" fill="#98194E"/>
<path d="M40.2603 33.1538C39.9658 34.2098 39.493 34.8236 38.6843 35.222C37.9871 35.5634 37.3916 35.669 36.8696 35.52C36.3198 35.3806 34.6763 33.9638 32.6583 31.9266C30.6869 29.9175 30.3977 29.7489 29.113 29.8192C27.9958 29.8794 27.5683 30.1258 26.4274 31.4106C23.5425 34.6323 22.2979 35.569 20.9106 35.5736C19.5139 35.5783 18.4109 34.301 18.3308 32.6152C18.3006 31.9371 18.3188 31.8146 18.5594 31.3711C18.7444 31.0126 20.0432 29.6047 23.1795 26.3634C28.1994 21.1847 27.9672 21.3645 29.3548 21.4352C30.789 21.5151 30.0979 20.9052 38.292 29.308C40.0018 31.0542 40.2544 31.4207 40.3318 32.287C40.3606 32.5318 40.3246 32.9181 40.2603 33.1538Z" fill="#98194E"/>
</svg>
