<svg width="244" height="170" viewBox="0 0 244 170" fill="none" xmlns="http://www.w3.org/2000/svg">
<circle cx="124" cy="85" r="85" fill="black"/>
<path d="M116.361 56.744L116.361 85.512C116.361 87.816 116.02 89.9707 115.337 91.976C114.654 93.9813 113.609 95.72 112.201 97.192C110.814 98.664 109.065 99.816 106.953 100.648C104.841 101.48 102.356 101.896 99.497 101.896C96.8943 101.896 94.5477 101.533 92.457 100.808C90.3877 100.083 88.425 99.0693 86.569 97.768L90.025 92.296C91.6677 93.384 93.193 94.1413 94.601 94.568C96.0303 94.9733 97.513 95.176 99.049 95.176C101.609 95.176 103.678 94.3653 105.257 92.744C106.836 91.1013 107.625 88.68 107.625 85.48L107.625 63.336L94.185 63.336L94.185 56.744L116.361 56.744ZM141.552 66.152C144.923 66.152 147.781 66.888 150.128 68.36C152.475 69.832 154.256 71.912 155.472 74.6C156.709 77.2667 157.328 80.392 157.328 83.976C157.328 87.6453 156.709 90.824 155.472 93.512C154.235 96.2 152.443 98.28 150.096 99.752C147.749 101.224 144.891 101.96 141.52 101.96C138.171 101.96 135.312 101.245 132.944 99.816C130.597 98.3653 128.805 96.3067 127.568 93.64C126.331 90.952 125.712 87.752 125.712 84.04C125.712 80.4987 126.331 77.384 127.568 74.696C128.805 72.008 130.608 69.9173 132.976 68.424C135.344 66.9093 138.203 66.152 141.552 66.152ZM141.552 72.52C139.184 72.52 137.413 73.448 136.24 75.304C135.088 77.16 134.512 80.072 134.512 84.04C134.512 88.0507 135.088 90.984 136.24 92.84C137.392 94.6747 139.152 95.592 141.52 95.592C143.888 95.592 145.648 94.6747 146.8 92.84C147.952 90.984 148.528 88.0293 148.528 83.976C148.528 80.0293 147.952 77.1387 146.8 75.304C145.648 73.448 143.899 72.52 141.552 72.52ZM133.264 61.48L129.936 57.864L138.896 49.384L144.176 49.384L153.072 57.864L149.872 61.48L141.552 55.528L133.264 61.48Z" fill="white"/>
<path d="M97 109C117.043 121.2 125.757 122.071 147.543 109" stroke="white" stroke-width="7"/>
</svg>
